<svg xmlns="http://www.w3.org/2000/svg" version="1.1" xmlns:xlink="http://www.w3.org/1999/xlink" xmlns:svgjs="http://svgjs.dev/svgjs" width="2000" height="1999" viewBox="0 0 2000 1999"><g transform="matrix(1,0,0,1,-0.431486880466764,-0.4312711370263287)"><svg viewBox="0 0 343 343" data-background-color="#ffffff" preserveAspectRatio="xMidYMid meet" height="1999" width="2000" xmlns="http://www.w3.org/2000/svg" xmlns:xlink="http://www.w3.org/1999/xlink"><g id="tight-bounds" transform="matrix(1,0,0,1,0.0740000000000407,0.07400000000001228)"><svg viewBox="0 0 342.85155851775386 342.85155851775386" height="342.85155851775386" width="342.85155851775386"><g><svg></svg></g><g><svg viewBox="0 0 342.85155851775386 342.85155851775386" height="342.85155851775386" width="342.85155851775386"><g><path d="M0 171.426c0-94.676 76.75-171.426 171.426-171.426 94.676 0 171.426 76.75 171.426 171.426 0 94.676-76.75 171.426-171.426 171.426-94.676 0-171.426-76.75-171.426-171.426zM171.426 339.555c92.855 0 168.129-75.274 168.129-168.129 0-92.855-75.274-168.129-168.129-168.129-92.855 0-168.129 75.274-168.129 168.129 0 92.855 75.274 168.129 168.129 168.129z" data-fill-palette-color="tertiary" fill="#ffaa00" stroke="transparent"></path><ellipse rx="164.56874808852186" ry="164.56874808852186" cx="171.42577925887693" cy="171.42577925887693" fill="#ffaa00" stroke="transparent" stroke-width="0" fill-opacity="1" data-fill-palette-color="tertiary"></ellipse></g><g transform="matrix(1,0,0,1,64.84655864529837,123.57285589034454)"><svg viewBox="0 0 213.1584412271571 95.70584673706477" height="95.70584673706477" width="213.1584412271571"><g><svg viewBox="0 0 213.1584412271571 95.70584673706477" height="95.70584673706477" width="213.1584412271571"><g><svg viewBox="0 0 213.1584412271571 95.70584673706477" height="95.70584673706477" width="213.1584412271571"><g transform="matrix(1,0,0,1,0,59.1500528116536)"><svg viewBox="0 0 213.1584412271571 36.555793925411166" height="36.555793925411166" width="213.1584412271571"><g id="textblocktransform"><svg viewBox="0 0 213.1584412271571 36.555793925411166" height="36.555793925411166" width="213.1584412271571" id="textblock"><g><svg viewBox="0 0 213.1584412271571 36.555793925411166" height="36.555793925411166" width="213.1584412271571"><g transform="matrix(1,0,0,1,0,0)"><svg width="213.1584412271571" viewBox="6.5 -35.7 212.23 36.400000000000006" height="36.555793925411166" data-palette-color="#590d22"><path d="M6.5 0L6.5-35 13.2-35Q18.5-35 21.43-32.77 24.35-30.55 24.35-26.55L24.35-26.55Q24.35-23.45 22.53-21.4 20.7-19.35 17.25-18.65L17.25-18.65 17.25-18.35Q20.55-17.7 22.65-15.25 24.75-12.8 25.8-9.2L25.8-9.2Q26.75-5.9 27.68-4.08 28.6-2.25 29.73-1.45 30.85-0.65 32.4-0.3L32.4-0.3 32.4 0 30.35 0Q28.15 0 26.73-0.8 25.3-1.6 24.3-3.5 23.3-5.4 22.4-8.75L22.4-8.75Q20.95-13.9 18.55-16.05 16.15-18.2 12.7-18.2L12.7-18.2 12.4-18.2 12.4-19.1 12.7-19.1Q20.75-19.1 20.75-26.5L20.75-26.5Q20.75-33.8 13.2-33.8L13.2-33.8 9.9-33.8 9.9 0 6.5 0ZM54 0L38.6 0 38.6-35 53.85-35 53.85-32.55 45.1-33.7Q42.8-34 42-34L42-34 42-18.75Q42.65-18.75 45.1-18.9L45.1-18.9 53.3-19.4 53.3-17.1 45.1-17.6Q42.65-17.75 42-17.75L42-17.75 42-1Q42.9-1 45.15-1.3L45.15-1.3 54-2.45 54 0ZM67.15 0L63.75 0 65-35.7 65.59-35.7 90.75-5.3 91.05-5.3 89.95-35 93.34-35 92.09 0.7 91.5 0.7 66.34-29.7 66.05-29.7 67.15 0ZM116.99 0L113.59 0 113.59-34Q112.84-34 110.49-33.7L110.49-33.7 100.69-32.45 100.69-35 129.89-35 129.89-32.45 120.09-33.7Q117.74-34 116.99-34L116.99-34 116.99 0ZM141.39 0L137.99 0 137.99-35 141.39-35 141.39 0ZM154.39 0L154.39-35 157.79-35 157.79-1Q158.74-1 160.79-1.3L160.79-1.3 169.09-2.55 169.09 0 154.39 0ZM192.84 0L177.44 0 177.44-35 192.69-35 192.69-32.55 183.94-33.7Q181.64-34 180.84-34L180.84-34 180.84-18.75Q181.49-18.75 183.94-18.9L183.94-18.9 192.14-19.4 192.14-17.1 183.94-17.6Q181.49-17.75 180.84-17.75L180.84-17.75 180.84-1Q181.74-1 183.99-1.3L183.99-1.3 192.84-2.45 192.84 0ZM218.73 0L203.33 0 203.33-35 218.58-35 218.58-32.55 209.83-33.7Q207.53-34 206.73-34L206.73-34 206.73-18.75Q207.38-18.75 209.83-18.9L209.83-18.9 218.03-19.4 218.03-17.1 209.83-17.6Q207.38-17.75 206.73-17.75L206.73-17.75 206.73-1Q207.63-1 209.88-1.3L209.88-1.3 218.73-2.45 218.73 0Z" opacity="1" transform="matrix(1,0,0,1,0,0)" fill="#590d22" class="wordmark-text-0" data-fill-palette-color="quaternary" id="text-0"></path></svg></g></svg></g></svg></g></svg></g><g transform="matrix(1,0,0,1,81.07059696131535,0)"><svg viewBox="0 0 51.017247304526435 50.52010720491823" height="50.52010720491823" width="51.017247304526435"><g><svg xmlns="http://www.w3.org/2000/svg" xmlns:xlink="http://www.w3.org/1999/xlink" version="1.1" x="0" y="0" viewBox="16.961997707760844 14.438124961843712 74.38472064200789 73.65987503815629" enable-background="new 0 0 100 100" xml:space="preserve" height="50.52010720491823" width="51.017247304526435" class="icon-icon-0" data-fill-palette-color="quaternary" id="icon-0"><g fill="#590d22" data-fill-palette-color="quaternary"><path d="M69.5 80.732H28.488A1.9 1.9 0 0 1 26.586 78.84V51.412C26.586 51.367 26.566 51.329 26.561 51.286 26.567 51.241 26.587 51.202 26.587 51.155A1 1 0 0 0 25.587 50.155H19.027A0.6 0.6 0 0 1 18.967 49.891C18.958 49.538 19.171 49.127 19.566 48.733 21.114 47.186 52.568 17.108 52.886 16.803A1.37 1.37 0 0 1 54.766 16.803L88.101 48.747C88.338 48.975 88.469 49.274 88.469 49.59 88.469 49.789 88.417 49.982 88.319 50.154H82.066A1 1 0 0 0 81.066 51.154V57.624A1 1 0 1 0 83.066 57.624V52.154H88.793A1 1 0 0 0 89.484 51.877 3.146 3.146 0 0 0 89.485 47.303L56.151 15.36C54.868 14.131 52.784 14.131 51.503 15.359 50.206 16.599 19.716 45.756 18.152 47.319 17.06 48.41 16.691 49.745 17.164 50.887 17.483 51.657 18.148 52.155 18.859 52.155H24.586V78.841A3.9 3.9 0 0 0 28.488 82.733H69.5A1 1 0 1 0 69.5 80.732" fill="#590d22" data-fill-palette-color="quaternary"></path><path d="M37.811 66.638A2.34 2.34 0 0 0 40.151 68.971H67.503A2.34 2.34 0 0 0 69.841 66.638V51.547A0.998 0.998 0 0 0 68.921 50.155H38.837A1 1 0 0 0 37.837 51.155C37.837 51.231 37.864 51.298 37.88 51.369A1 1 0 0 0 37.811 51.713z" fill="#590d22" data-fill-palette-color="quaternary"></path><path d="M88.491 74.879C87.877 74.511 86.443 74.066 84.224 73.556V67.177C85.597 67.651 86.152 68.442 86.136 68.814A0.5 0.5 0 0 0 86.635 69.336H89.711A0.5 0.5 0 0 0 90.21 68.857C90.327 66.158 87.991 64.042 84.224 63.388V62.187C84.224 61.91 84.001 61.687 83.724 61.687H80.408C80.131 61.687 79.908 61.91 79.908 62.187V63.316C75.437 63.892 72.785 66.288 72.785 69.783 72.785 72.008 73.64 73.721 75.328 74.877 75.951 75.299 77.49 75.84 79.908 76.484V82.653C78.161 82.187 77.279 81.336 77.296 80.957A0.496 0.496 0 0 0 76.797 80.436H73.721A0.5 0.5 0 0 0 73.222 80.914C73.081 84.147 76.506 85.843 79.909 86.388V87.598A0.5 0.5 0 0 0 80.409 88.098H83.725A0.5 0.5 0 0 0 84.225 87.598V86.52C88.655 86.09 91.176 83.791 91.34 80.009 91.436 77.766 90.504 76.088 88.491 74.879M79.908 72.447C77.868 71.728 77.006 70.959 77.05 69.926 77.127 68.18 77.965 67.294 79.908 66.964zM84.225 82.793V77.537C86.225 78.039 87.074 78.544 87.074 79.865 87.073 81.433 86.115 82.416 84.225 82.793" fill="#590d22" data-fill-palette-color="quaternary"></path></g></svg></g></svg></g><g></g></svg></g></svg></g></svg></g></svg></g><defs></defs></svg><rect width="342.85155851775386" height="342.85155851775386" fill="none" stroke="none" visibility="hidden"></rect></g></svg></g></svg>